<svg width="39" height="35" viewBox="0 0 39 35" fill="none" xmlns="http://www.w3.org/2000/svg">
    <path
        d="M21.9356 1.90247L38.1244 29.9412C38.3712 30.3688 38.5012 30.8538 38.5012 31.3474C38.5012 31.8411 38.3713 32.3261 38.1244 32.7537C37.8776 33.1812 37.5225 33.5363 37.095 33.7831C36.6675 34.03 36.1825 34.16 35.6888 34.16H3.31127C2.81758 34.16 2.33259 34.03 1.90504 33.7831C1.4775 33.5363 1.12247 33.1812 0.875626 32.7537C0.628786 32.3261 0.498837 31.8411 0.49884 31.3474C0.498843 30.8538 0.628798 30.3688 0.875644 29.9412L17.0644 1.90247C18.1463 0.0274659 20.8519 0.0274659 21.9356 1.90247ZM19.5 24.125C19.0027 24.125 18.5258 24.3225 18.1742 24.6741C17.8226 25.0258 17.625 25.5027 17.625 26C17.625 26.4972 17.8226 26.9742 18.1742 27.3258C18.5258 27.6774 19.0027 27.875 19.5 27.875C19.9973 27.875 20.4742 27.6774 20.8258 27.3258C21.1775 26.9742 21.375 26.4972 21.375 26C21.375 25.5027 21.1775 25.0258 20.8258 24.6741C20.4742 24.3225 19.9973 24.125 19.5 24.125ZM19.5 11C19.0408 11 18.5975 11.1686 18.2543 11.4738C17.9111 11.779 17.6919 12.1995 17.6381 12.6556L17.625 12.875V20.375C17.6255 20.8529 17.8085 21.3125 18.1366 21.66C18.4647 22.0075 18.9131 22.2167 19.3901 22.2447C19.8672 22.2727 20.337 22.1175 20.7035 21.8107C21.0699 21.504 21.3055 21.0689 21.3619 20.5943L21.375 20.375V12.875C21.375 12.3777 21.1775 11.9008 20.8258 11.5491C20.4742 11.1975 19.9973 11 19.5 11Z"
        fill="#E40613" />
</svg>